Coordinates
version=1
nRows=17
nColumns=36
inDegrees=yes

Units are S.I. units (second, meters, Newtons, ...)
If the header above contains a line with 'inDegrees', this indicates whether rotational values are in degrees (yes) or radians (no).

endheader
time	pelvis_tilt	pelvis_list	pelvis_rotation	pelvis_tx	pelvis_ty	pelvis_tz	hip_flexion_r	hip_adduction_r	hip_rotation_r	knee_angle_r	knee_angle_r_beta	ankle_angle_r	subtalar_angle_r	mtp_angle_r	hip_flexion_l	hip_adduction_l	hip_rotation_l	knee_angle_l	knee_angle_l_beta	ankle_angle_l	subtalar_angle_l	mtp_angle_l	lumbar_extension	lumbar_bending	lumbar_rotation	arm_flex_r	arm_add_r	arm_rot_r	elbow_flex_r	pro_sup_r	arm_flex_l	arm_add_l	arm_rot_l	elbow_flex_l	pro_sup_l
     29.78333330	      6.23861523	      0.46664305	    175.61232664	      0.42072186	      0.91713885	      0.69903894	     24.00030021	      3.75171428	      3.41733278	     30.37271944	      0.53010396	      3.50651763	     -9.24271219	     -7.49999987	     29.82145189	     -2.31857553	     -0.41849477	     69.64669297	      1.21556411	     -1.58967694	    -12.24013822	     -7.49999987	     -4.69090668	      0.20843336	      2.97692162	      7.65726098	     -7.83690986	    -13.94561176	     20.37486302	     93.03226458	     16.44170150	    -10.86863879	      5.01794908	     12.41481030	     97.98981696
     29.80000000	      5.80129289	      0.50151112	    176.10902018	      0.42386748	      0.92757715	      0.69921085	     20.52842571	      3.56248839	      3.30169904	     27.35270490	      0.47739476	      2.98864061	    -10.54769371	     -7.49999987	     30.48754312	     -2.58554771	     -1.82277540	     65.42396866	      1.14186366	     -3.06050745	    -11.73410706	     -7.49999987	     -5.34131966	     -0.06818996	      3.61913545	      8.58824229	     -8.36616794	    -13.24557894	     21.44719366	     91.91775802	     16.26385803	    -10.42004329	      4.40961229	     11.98232191	     96.77169203
     29.81666670	      5.39823964	      0.44596187	    176.32465281	      0.42674304	      0.93472345	      0.70036329	     17.73824587	      3.21659346	      2.70430946	     25.05869570	      0.43735675	      2.40619542	    -11.70482038	     -7.49999987	     30.66324019	     -2.87862337	     -3.59149313	     60.45436886	      1.05512778	     -4.44187125	    -11.69672676	     -7.49999987	     -6.15812120	     -0.37500997	      4.39194705	      9.51037320	     -8.98669258	    -12.70437725	     22.62856597	     91.26163533	     15.85662865	    -10.04719863	      3.53072081	     11.70153351	     96.68944235
     29.83333330	      5.41041015	      0.45175275	    176.22406888	      0.42954668	      0.93688747	      0.70169508	     16.19491085	      2.93606575	      1.69975448	     23.90154356	      0.41716063	      1.90312761	    -13.11706647	     -7.49999987	     30.79353782	     -3.30097145	     -5.61126741	     55.27671074	      0.96476060	     -5.59621462	    -12.06116141	     -7.49999987	     -6.52429766	     -0.49763241	      5.07515296	     10.71030604	     -9.57310800	    -12.43830042	     23.15312746	     89.48623701	     15.03634669	     -9.77177880	      3.24631721	     11.41541818	     94.86840596
     29.85000000	      5.23282507	      0.55066589	    175.75687135	      0.43177592	      0.93652025	      0.70198450	     15.06828722	      2.81693089	      0.84030035	     23.60856465	      0.41204718	      1.89423075	    -14.68904848	     -7.49999987	     30.31983182	     -3.92229479	     -8.00621628	     50.06131444	      0.87373476	     -5.61472884	    -11.25396602	     -7.49999987	     -7.23147630	     -0.53938058	      5.86415997	     12.05366275	    -10.39369277	    -10.69926965	     23.67421993	     88.97769936	     14.15208811	     -9.36679508	      1.15191808	     11.25570877	     94.59319420
     29.86666670	      5.34623697	      0.80985864	    175.33457723	      0.43281668	      0.93552832	      0.70201092	     14.70433721	      2.82248193	     -0.19880304	     24.01434035	      0.41912931	      3.17898039	    -15.57965177	     -7.49999987	     29.94311301	     -4.40894669	    -10.01365482	     44.64400162	      0.77918482	     -5.55220197	    -10.20175761	     -7.49999987	     -7.59183073	     -0.28507514	      6.52982062	     13.38742686	    -11.05026871	    -10.53288804	     24.08838886	     87.62799202	     13.19577446	     -9.00788352	      0.70190379	     11.16576231	     93.14877574
     29.88333330	      5.62339462	      1.18166094	    174.78174546	      0.43316486	      0.93466051	      0.70185913	     14.49476716	      3.00177243	     -1.05942703	     24.46129834	      0.42693020	      5.08383062	    -15.37616267	     -7.49999987	     29.60918683	     -4.85922321	    -11.73852147	     38.96181672	      0.68001198	     -5.15085219	     -7.49013400	     -7.49999987	     -7.53850805	      0.10168398	      7.46175575	     14.36348721	    -11.95381439	     -9.55167099	     24.36329946	     87.57875752	     12.34007474	     -8.42166813	     -0.89778765	     10.71440269	     93.13859903
     29.90000000	      5.76461072	      1.64974795	    174.24722032	      0.43334351	      0.93396674	      0.70235624	     14.00574155	      3.25775961	     -1.99258305	     24.78554028	      0.43258928	      7.94783946	    -13.75908305	     -7.49999987	     29.10486252	     -4.98112662	    -12.57061693	     32.94086359	      0.57492653	     -5.59755714	     -5.12244747	     -7.49999987	     -7.44576822	      0.63871869	      8.17448145	     15.16978252	    -12.72730040	     -8.84656104	     24.58939127	     86.91826635	     11.34947243	     -7.79701073	     -2.52211677	     10.26740827	     92.98443091
     29.91666670	      5.82102146	      2.32006288	    173.55724097	      0.43338096	      0.93224780	      0.70302221	     13.13763333	      3.88791141	     -2.44981008	     24.58091893	      0.42901797	     10.67565668	    -12.05169407	     -7.49999987	     28.61221049	     -5.23503592	    -12.76231033	     27.23229313	      0.47529318	     -6.36944971	     -2.82938627	     -7.49999987	     -7.20424210	      1.43916212	      9.05168385	     15.83627927	    -13.51828704	     -8.40350381	     24.51307743	     86.59564362	     10.26006584	     -7.12035105	     -3.75369861	      9.87336827	     93.05708608
     29.93333330	      5.80111768	      3.11169384	    172.84471321	      0.43329021	      0.92958033	      0.70367432	     11.93070697	      4.78484382	     -2.52794125	     23.89876844	      0.41711220	     13.16759287	    -10.16068247	     -7.49999987	     28.12427904	     -5.70844048	    -12.34354340	     22.21821350	      0.38778098	     -7.24436647	     -1.04473757	     -7.49999987	     -6.82551864	      2.35772786	      9.97564875	     16.28803717	    -14.32825408	     -7.84984715	     24.68490896	     86.21569981	      9.28635439	     -6.49354197	     -4.78037333	      9.27348657	     93.22087135
     29.95000000	      5.93897472	      3.90136890	    172.17933668	      0.43358627	      0.92685561	      0.70430865	     10.65957953	      5.82126079	     -2.10994990	     22.83569229	      0.39855802	     15.20284483	     -8.09895340	     -7.49999987	     27.90908672	     -6.46674476	    -11.43701279	     18.03814510	      0.31482502	     -8.01197853	      0.10622676	     -7.49999987	     -6.16443666	      3.30615887	     10.89291554	     16.76101747	    -15.11503269	     -7.04883532	     24.86384459	     85.44392064	      8.45317370	     -5.96799166	     -5.38543503	      8.56362260	     93.08148471
     29.96666670	      5.92477432	      4.71518321	    171.79042077	      0.43463203	      0.92448511	      0.70530315	      9.03281363	      6.85119321	     -1.40040303	     21.53011186	      0.37577134	     16.70300044	     -5.91865835	     -7.49999987	     27.64338884	     -7.40895448	     -9.95722929	     14.52959213	      0.25358922	     -8.66201496	      0.42752217	     -7.49999987	     -5.66773784	      4.17776501	     11.52082660	     17.16862623	    -15.73205244	     -5.97810024	     25.39118218	     84.48364844	      7.80747508	     -5.60636314	     -5.58509314	      7.93236527	     93.30758894
     29.98333330	      5.97003191	      5.39558396	    171.48336313	      0.43612508	      0.92143901	      0.70619573	      7.49029330	      7.68262464	     -0.29024205	     20.29332733	      0.35418538	     17.80150716	     -3.90100077	     -7.49999987	     27.67355950	     -8.46579251	     -8.62873963	     11.93196403	      0.20825206	     -8.53767393	      0.68998398	     -7.49999987	     -5.08493102	      4.91027597	     12.11655100	     17.54615088	    -16.45306935	     -4.08177303	     25.86880107	     83.73460062	      7.32137298	     -5.29544509	     -7.39132978	      7.56460427	     97.08822483
     30.00000000	      6.16089735	      5.82063947	    171.30666616	      0.43732388	      0.91813380	      0.70667537	      6.21905040	      8.20372766	      1.14414192	     19.31758143	      0.33715540	     18.36549052	     -3.09212214	     -7.49999987	     28.07340345	     -9.35018085	     -7.47862585	     10.24856654	      0.17887123	     -7.62344037	      0.77043757	     -7.49999987	     -4.31027170	      5.37966068	     12.41771579	     17.81563623	    -16.62208340	     -4.06089029	     26.21752745	     83.68753336	      6.79091201	     -5.13465434	     -7.42311319	      7.40043288	     97.05711117
     30.01666670	      6.29623788	      6.02732106	    171.31207235	      0.43972320	      0.91543356	      0.70779146	      5.21631253	      8.34637162	      2.14435410	     19.05812914	      0.33262710	     18.89628686	     -2.68343707	     -7.49999987	     28.58745546	     -9.93666964	     -6.58218365	      9.29574352	      0.16224133	     -6.24863704	      0.53274398	     -7.49999987	     -3.92847680	      5.46461325	     12.56095110	     18.09771651	    -16.77074326	     -4.02091001	     26.56924134	     83.63722714	      6.62173163	     -5.07560277	     -7.44793344	      7.43875754	     96.96596399
     30.03333330	      5.93083906	      6.27806910	    171.53872519	      0.44432961	      0.91412985	      0.71061595	      3.98580655	      8.34175168	      2.54901674	     19.53339149	      0.34092200	     19.92275682	     -2.27300070	     -7.49999987	     28.82986805	    -10.38352990	     -5.69298726	      9.21392754	      0.16081337	     -5.07524695	     -0.55765745	     -7.49999987	     -4.16940880	      5.56724691	     12.68799565	     18.00078065	    -17.20295389	     -3.50270985	     27.36101689	     83.60664513	      7.17750419	     -4.77048582	     -7.72265712	      6.27307340	     96.93968299
     30.05000000	      5.84736312	      6.22674213	    171.62073398	      0.44993618	      0.91258188	      0.71444519	      3.74378388	      8.03499956	      2.80443684	     21.29625900	      0.37168984	     20.80886335	     -2.77787220	     -7.49999987	     29.39131536	    -10.56520259	     -5.46739776	      9.76067433	      0.17035590	     -3.90490957	     -1.25862384	     -7.49999987	     -4.31064593	      5.35995928	     12.62696017	     18.17127795	    -17.38275357	     -3.46660427	     27.53999927	     83.58666435	      7.37651833	     -4.63589321	     -7.81737011	      6.14826060	     96.96834827
